<svg width="22" height="22" viewBox="-5 -5 254 252" preserveAspectRatio="xMidYMid meet" xmlns="http://www.w3.org/2000/svg">
  <path fill="#FFFFFF" d="M31 0H213V1H31ZM26 1H218V2H26ZM23 2H221V3H23ZM20 3H224V4H20ZM18 4H226V5H18ZM17 5H227V6H17ZM15 6H229V7H15ZM14 7H230V8H14ZM13 8H232V9H13ZM12 9H233V10H12ZM10 10H33V11H10ZM41 10H64V11H41ZM77 10H234V11H77ZM216 11H235V12H216ZM10 11H28V12H10ZM218 12H236V13H218ZM9 12H26V13H9ZM8 13H24V14H8ZM220 13H236V14H220ZM7 14H22V15H7ZM222 14H237V15H222ZM6 15H20V16H6ZM224 15H238V16H224ZM225 16H238V17H225ZM6 16H19V17H6ZM226 17H239V18H226ZM5 17H18V18H5ZM227 18H240V19H227ZM4 18H17V19H4ZM4 19H16V20H4ZM228 19H240V20H228ZM229 20H241V22H229ZM3 20H15V22H3ZM3 22H14V23H3ZM230 22H242V23H230ZM231 23H242V25H231ZM2 23H13V25H2ZM232 25H242V26H232ZM1 25H12V27H1ZM232 26H243V28H232ZM1 27H11V29H1ZM233 28H243V31H233ZM0 29H11V31H0ZM233 31H244V32H233ZM106 32H110V33H106ZM38 32H42V33H38ZM73 32H76V33H73ZM36 33H45V34H36ZM104 33H112V34H104ZM70 33H78V34H70ZM35 34H46V35H35ZM103 34H113V35H103ZM69 34H80V35H69ZM102 35H114V36H102ZM68 35H80V36H68ZM34 35H47V36H34ZM33 36H47V37H33ZM67 36H81V38H67ZM101 36H115V38H101ZM66 38H82V42H66ZM33 37H48V43H33ZM100 38H115V43H100ZM67 42H81V44H67ZM101 43H115V44H101ZM33 43H47V44H33ZM101 44H114V45H101ZM34 44H47V45H34ZM68 44H80V46H68ZM35 45H46V46H35ZM102 45H113V46H102ZM36 46H45V47H36ZM103 46H112V47H103ZM69 46H79V47H69ZM105 47H110V48H105ZM71 47H77V48H71ZM37 47H43V48H37ZM234 32H244V66H234ZM0 31H10V67H0ZM233 66H244V67H233ZM0 67H244V77H0ZM105 138H115V139H105ZM102 139H118V140H102ZM101 140H120V141H101ZM99 141H122V142H99ZM98 142H123V143H98ZM97 143H124V144H97ZM96 144H125V145H96ZM95 145H126V146H95ZM94 146H126V147H94ZM94 147H127V148H94ZM93 148H107V149H93ZM114 148H128V149H114ZM116 149H128V150H116ZM93 149H105V150H93ZM117 150H128V151H117ZM92 150H104V151H92ZM92 151H103V152H92ZM118 151H129V152H118ZM47 152H102V153H47ZM119 152H197V153H119ZM119 153H198V154H119ZM46 153H102V154H46ZM119 154H199V155H119ZM120 155H199V158H120ZM45 154H101V159H45ZM119 158H199V159H119ZM119 159H198V161H119ZM46 159H102V161H46ZM118 161H130V162H118ZM48 161H103V162H48ZM131 161H195V162H131ZM92 162H103V163H92ZM117 162H129V163H117ZM116 163H128V164H116ZM93 163H104V164H93ZM93 164H105V165H93ZM115 164H128V165H115ZM93 165H107V166H93ZM113 165H127V166H113ZM94 166H127V167H94ZM95 167H126V169H95ZM96 169H125V170H96ZM97 170H124V171H97ZM98 171H123V172H98ZM99 172H121V173H99ZM101 173H120V174H101ZM103 174H118V175H103ZM105 175H115V176H105ZM234 77H244V211H234ZM0 77H10V212H0ZM233 211H244V213H233ZM0 212H11V214H0ZM233 213H243V215H233ZM1 214H11V216H1ZM232 215H243V218H232ZM1 216H12V218H1ZM231 218H242V220H231ZM2 218H13V220H2ZM230 220H241V221H230ZM3 220H14V221H3ZM3 221H15V222H3ZM229 221H241V223H229ZM3 222H16V223H3ZM4 223H16V224H4ZM228 223H240V224H228ZM227 224H240V225H227ZM4 224H17V225H4ZM226 225H239V226H226ZM5 225H18V226H5ZM225 226H238V227H225ZM6 226H19V227H6ZM223 227H238V228H223ZM6 227H20V228H6ZM7 228H22V229H7ZM222 228H237V229H222ZM8 229H24V230H8ZM220 229H236V230H220ZM218 230H235V231H218ZM9 230H26V231H9ZM215 231H234V232H215ZM9 231H30V232H9ZM10 232H234V233H10ZM12 233H232V234H12ZM13 234H231V235H13ZM14 235H230V236H14ZM16 236H229V237H16ZM17 237H227V238H17ZM19 238H225V239H19ZM21 239H223V240H21ZM24 240H221V241H24ZM27 241H217V242H27Z"/>
</svg>
