<svg width="22" height="22" viewBox="-5 -5 252 261" preserveAspectRatio="xMidYMid meet" xmlns="http://www.w3.org/2000/svg">
  <path fill="#F5F5F5" d="M108 0H135V1H108ZM101 1H142V2H101ZM96 2H147V3H96ZM92 3H151V4H92ZM88 4H155V5H88ZM85 5H158V6H85ZM82 6H161V7H82ZM80 7H164V8H80ZM77 8H166V9H77ZM75 9H169V10H75ZM128 10H171V11H128ZM73 10H117V11H73ZM137 11H173V12H137ZM70 11H107V12H70ZM143 12H175V13H143ZM68 12H101V13H68ZM147 13H176V14H147ZM66 13H96V14H66ZM151 14H178V15H151ZM64 14H92V15H64ZM154 15H180V16H154ZM63 15H89V16H63ZM158 16H182V17H158ZM61 16H86V17H61ZM160 17H183V18H160ZM59 17H83V18H59ZM58 18H81V19H58ZM163 18H185V19H163ZM56 19H78V20H56ZM165 19H186V20H165ZM55 20H76V21H55ZM167 20H188V21H167ZM54 21H75V22H54ZM169 21H189V22H169ZM171 22H190V23H171ZM52 22H72V23H52ZM172 23H192V24H172ZM51 23H70V24H51ZM49 24H68V25H49ZM174 24H193V25H174ZM48 25H66V26H48ZM176 25H194V26H176ZM178 26H195V27H178ZM47 26H65V27H47ZM46 27H63V28H46ZM179 27H197V28H179ZM44 28H62V29H44ZM181 28H198V29H181ZM43 29H60V30H43ZM182 29H199V30H182ZM184 30H200V31H184ZM42 30H59V31H42ZM41 31H58V32H41ZM185 31H201V32H185ZM186 32H202V33H186ZM40 32H56V33H40ZM188 33H203V34H188ZM39 33H55V34H39ZM38 34H54V35H38ZM189 34H204V35H189ZM190 35H205V36H190ZM37 35H52V36H37ZM36 36H51V37H36ZM191 36H206V37H191ZM192 37H207V38H192ZM35 37H50V38H35ZM34 38H49V39H34ZM193 38H208V39H193ZM194 39H209V40H194ZM33 39H48V40H33ZM196 40H210V41H196ZM32 40H47V41H32ZM31 41H46V42H31ZM197 41H210V42H197ZM31 42H45V43H31ZM197 42H211V43H197ZM198 43H212V44H198ZM30 43H44V44H30ZM199 44H213V45H199ZM29 44H43V45H29ZM200 45H214V46H200ZM28 45H42V46H28ZM201 46H214V47H201ZM27 46H41V47H27ZM202 47H215V48H202ZM27 47H40V48H27ZM203 48H216V49H203ZM26 48H39V49H26ZM204 49H217V50H204ZM25 49H38V50H25ZM24 50H37V51H24ZM205 50H218V52H205ZM23 51H36V53H23ZM206 52H219V53H206ZM22 53H35V54H22ZM207 53H220V54H207ZM208 54H220V55H208ZM21 54H34V55H21ZM209 55H221V56H209ZM21 55H33V56H21ZM209 56H222V57H209ZM20 56H32V57H20ZM19 57H32V58H19ZM210 57H222V58H210ZM19 58H31V59H19ZM211 58H223V60H211ZM18 59H30V61H18ZM212 60H224V61H212ZM17 61H29V62H17ZM213 61H225V63H213ZM16 62H28V64H16ZM214 63H226V65H214ZM15 64H27V66H15ZM215 65H227V66H215ZM14 66H26V67H14ZM216 66H227V67H216ZM14 67H25V68H14ZM216 67H228V68H216ZM13 68H25V69H13ZM217 68H228V69H217ZM217 69H229V70H217ZM13 69H24V70H13ZM12 70H24V71H12ZM218 70H229V71H218ZM12 71H23V72H12ZM218 71H230V72H218ZM11 72H23V73H11ZM219 72H230V73H219ZM219 73H231V74H219ZM11 73H22V74H11ZM10 74H22V75H10ZM220 74H231V75H220ZM220 75H232V76H220ZM10 75H21V77H10ZM221 76H232V78H221ZM9 77H20V79H9ZM222 78H233V80H222ZM8 79H19V81H8ZM222 80H234V81H222ZM223 81H234V83H223ZM7 81H18V84H7ZM224 83H235V86H224ZM6 84H17V87H6ZM225 86H236V88H225ZM5 87H16V89H5ZM226 88H236V90H226ZM5 89H15V90H5ZM226 90H237V92H226ZM4 90H15V93H4ZM227 92H237V93H227ZM4 93H14V94H4ZM227 93H238V95H227ZM3 94H14V96H3ZM228 95H238V97H228ZM3 96H13V98H3ZM228 97H239V100H228ZM2 98H13V100H2ZM229 100H239V102H229ZM2 100H12V103H2ZM229 102H240V105H229ZM1 103H12V105H1ZM230 105H240V108H230ZM1 105H11V109H1ZM64 109H66V110H64ZM178 109H181V110H178ZM120 109H124V110H120ZM230 108H241V111H230ZM59 110H71V111H59ZM116 110H128V111H116ZM174 110H185V111H174ZM114 111H130V112H114ZM172 111H187V112H172ZM57 111H73V112H57ZM0 109H11V113H0ZM56 112H74V113H56ZM113 112H131V113H113ZM170 112H188V113H170ZM112 113H133V114H112ZM55 113H75V114H55ZM169 113H190V114H169ZM168 114H191V115H168ZM54 114H76V115H54ZM111 114H134V115H111ZM231 111H241V116H231ZM110 115H134V116H110ZM167 115H191V116H167ZM53 115H77V116H53ZM52 116H78V117H52ZM109 116H135V117H109ZM166 116H192V117H166ZM51 117H79V119H51ZM165 117H193V119H165ZM108 117H136V119H108ZM164 119H194V120H164ZM50 119H79V120H50ZM107 119H137V120H107ZM231 116H242V121H231ZM107 120H120V121H107ZM181 120H194V121H181ZM67 120H80V121H67ZM50 120H63V121H50ZM164 120H177V121H164ZM124 120H137V121H124ZM164 121H175V122H164ZM126 121H137V122H126ZM183 121H194V122H183ZM50 121H61V122H50ZM107 121H118V122H107ZM69 121H80V123H69ZM163 122H175V123H163ZM107 122H117V124H107ZM127 122H138V124H127ZM49 122H60V124H49ZM128 124H138V126H128ZM49 124H59V126H49ZM106 124H117V127H106ZM184 122H195V128H184ZM70 123H80V128H70ZM163 123H174V128H163ZM127 126H138V128H127ZM49 126H60V128H49ZM107 127H117V128H107ZM164 128H175V129H164ZM126 128H137V129H126ZM183 128H195V129H183ZM69 128H80V129H69ZM50 128H60V129H50ZM107 128H118V130H107ZM182 129H194V130H182ZM50 129H61V130H50ZM68 129H80V130H68ZM125 129H137V130H125ZM164 129H176V130H164ZM232 121H242V131H232ZM107 130H120V131H107ZM164 130H178V131H164ZM181 130H194V131H181ZM66 130H80V131H66ZM50 130H63V131H50ZM124 130H137V131H124ZM165 131H194V132H165ZM50 131H79V132H50ZM108 131H136V133H108ZM51 132H79V133H51ZM231 131H242V134H231ZM165 132H193V134H165ZM51 133H78V134H51ZM109 133H135V135H109ZM52 134H78V135H52ZM166 134H192V135H166ZM110 135H134V136H110ZM167 135H191V136H167ZM53 135H77V136H53ZM0 113H10V137H0ZM111 136H133V137H111ZM168 136H190V137H168ZM54 136H76V137H54ZM55 137H75V138H55ZM112 137H132V138H112ZM169 137H189V138H169ZM113 138H131V139H113ZM56 138H73V139H56ZM170 138H188V139H170ZM115 139H129V140H115ZM172 139H186V140H172ZM57 139H72V140H57ZM231 134H241V141H231ZM0 137H11V141H0ZM174 140H184V141H174ZM60 140H70V141H60ZM117 140H127V141H117ZM1 141H11V144H1ZM230 141H241V144H230ZM1 144H12V147H1ZM230 144H240V147H230ZM2 147H12V149H2ZM229 147H240V149H229ZM229 149H239V152H229ZM2 149H13V153H2ZM228 152H239V154H228ZM3 153H13V154H3ZM228 154H238V156H228ZM3 154H14V156H3ZM4 156H14V157H4ZM227 156H238V158H227ZM4 157H15V160H4ZM227 158H237V160H227ZM5 160H15V161H5ZM226 160H237V162H226ZM5 161H16V163H5ZM226 162H236V163H226ZM225 163H236V165H225ZM6 163H17V166H6ZM225 165H235V166H225ZM6 166H18V167H6ZM224 166H235V168H224ZM7 167H18V169H7ZM223 168H234V170H223ZM8 169H19V171H8ZM222 170H234V171H222ZM8 171H20V172H8ZM222 171H233V173H222ZM9 172H20V174H9ZM221 173H232V175H221ZM10 174H21V176H10ZM220 175H232V176H220ZM10 176H22V177H10ZM220 176H231V178H220ZM11 177H22V178H11ZM11 178H23V179H11ZM219 178H230V179H219ZM12 179H23V180H12ZM218 179H230V180H218ZM12 180H24V181H12ZM218 180H229V181H218ZM217 181H229V182H217ZM13 181H25V183H13ZM217 182H228V183H217ZM216 183H228V184H216ZM14 183H26V185H14ZM216 184H227V185H216ZM215 185H227V186H215ZM15 185H27V187H15ZM214 186H226V188H214ZM16 187H28V188H16ZM213 188H225V189H213ZM16 188H29V189H16ZM17 189H29V190H17ZM212 189H225V190H212ZM212 190H224V191H212ZM18 190H30V192H18ZM211 191H224V192H211ZM211 192H223V193H211ZM19 192H31V193H19ZM19 193H32V194H19ZM210 193H222V194H210ZM20 194H33V195H20ZM209 194H222V195H209ZM21 195H33V196H21ZM208 195H221V196H208ZM208 196H220V197H208ZM21 196H34V197H21ZM22 197H35V198H22ZM207 197H220V198H207ZM206 198H219V199H206ZM23 198H36V200H23ZM205 199H218V200H205ZM24 200H37V201H24ZM204 200H218V201H204ZM204 201H217V202H204ZM25 201H38V202H25ZM203 202H216V203H203ZM26 202H39V203H26ZM202 203H215V204H202ZM27 203H40V204H27ZM201 204H215V205H201ZM27 204H41V205H27ZM200 205H214V206H200ZM28 205H42V206H28ZM199 206H213V207H199ZM29 206H43V207H29ZM198 207H212V208H198ZM30 207H44V208H30ZM31 208H45V209H31ZM197 208H211V209H197ZM31 209H46V210H31ZM196 209H210V210H196ZM195 210H210V211H195ZM32 210H47V211H32ZM194 211H209V212H194ZM33 211H48V212H33ZM34 212H49V213H34ZM193 212H208V213H193ZM192 213H207V214H192ZM35 213H50V214H35ZM36 214H51V215H36ZM191 214H206V215H191ZM189 215H205V216H189ZM37 215H53V216H37ZM188 216H204V217H188ZM38 216H54V217H38ZM187 217H203V218H187ZM39 217H55V218H39ZM186 218H202V219H186ZM40 218H56V219H40ZM41 219H58V220H41ZM184 219H201V220H184ZM183 220H200V221H183ZM42 220H59V221H42ZM181 221H199V222H181ZM44 221H61V222H44ZM180 222H197V223H180ZM45 222H62V223H45ZM178 223H196V224H178ZM46 223H64V224H46ZM47 224H65V225H47ZM177 224H195V225H177ZM175 225H194V226H175ZM49 225H67V226H49ZM50 226H69V227H50ZM173 226H192V227H173ZM51 227H71V228H51ZM171 227H191V228H171ZM170 228H190V229H170ZM52 228H73V229H52ZM168 229H188V230H168ZM54 229H75V230H54ZM55 230H77V231H55ZM165 230H187V231H165ZM57 231H79V232H57ZM163 231H185V232H163ZM58 232H81V233H58ZM161 232H184V233H161ZM158 233H182V234H158ZM60 233H84V234H60ZM62 234H87V235H62ZM156 234H180V235H156ZM64 235H90V236H64ZM152 235H179V236H152ZM65 236H94V237H65ZM148 236H177V237H148ZM145 237H175V238H145ZM67 237H98V238H67ZM140 238H173V239H140ZM69 238H102V239H69ZM71 239H109V240H71ZM132 239H171V240H132ZM73 240H169V241H73ZM75 241H167V242H75ZM78 242H164V243H78ZM81 243H162V244H81ZM84 244H159V245H84ZM87 245H156V246H87ZM90 246H152V247H90ZM94 247H149V248H94ZM99 248H144V249H99ZM104 249H138V250H104ZM117 250H126V251H117Z"/>
</svg>
