<svg width="22" height="22" viewBox="-5 -5 227 231" preserveAspectRatio="xMidYMid meet" xmlns="http://www.w3.org/2000/svg">
  <path fill="#F5F5F5" d="M113 0H118V1H113ZM111 1H120V2H111ZM110 2H121V4H110ZM109 4H121V5H109ZM109 5H122V9H109ZM108 9H122V10H108ZM108 10H123V12H108ZM107 12H123V13H107ZM107 13H124V15H107ZM106 15H124V16H106ZM106 16H125V18H106ZM105 18H126V19H105ZM105 19H115V20H105ZM116 19H126V21H116ZM104 20H115V21H104ZM116 21H127V22H116ZM104 21H114V22H104ZM117 22H127V23H117ZM103 22H114V23H103ZM117 23H128V24H117ZM103 23H113V24H103ZM102 24H113V25H102ZM118 24H128V25H118ZM118 25H129V26H118ZM101 25H112V27H101ZM119 26H130V28H119ZM100 27H111V29H100ZM120 28H131V29H120ZM120 29H132V30H120ZM99 29H110V30H99ZM98 30H110V31H98ZM121 30H133V32H121ZM97 31H109V32H97ZM122 32H134V33H122ZM96 32H109V33H96ZM123 33H135V34H123ZM96 33H108V34H96ZM123 34H136V35H123ZM95 34H107V35H95ZM94 35H106V36H94ZM124 35H137V36H124ZM125 36H138V37H125ZM93 36H106V37H93ZM92 37H105V38H92ZM126 37H139V38H126ZM126 38H140V39H126ZM90 38H104V39H90ZM127 39H142V40H127ZM89 39H103V40H89ZM128 40H143V41H128ZM88 40H102V41H88ZM129 41H145V42H129ZM86 41H101V42H86ZM84 42H100V43H84ZM130 42H147V43H130ZM131 43H148V44H131ZM82 43H99V44H82ZM133 44H150V45H133ZM80 44H98V45H80ZM134 45H153V46H134ZM78 45H97V46H78ZM135 46H156V47H135ZM75 46H96V47H75ZM136 47H158V48H136ZM72 47H94V48H72ZM138 48H161V49H138ZM68 48H93V49H68ZM139 49H165V50H139ZM65 49H91V50H65ZM64 50H90V51H64ZM141 50H167V51H141ZM143 51H168V52H143ZM63 51H88V52H63ZM145 52H168V53H145ZM63 52H86V53H63ZM147 53H168V54H147ZM62 53H84V54H62ZM62 54H81V56H62ZM150 54H169V56H150ZM147 56H168V57H147ZM62 56H84V57H62ZM145 57H168V58H145ZM63 57H86V58H63ZM143 58H167V59H143ZM63 58H88V59H63ZM64 59H90V60H64ZM141 59H167V60H141ZM139 60H164V61H139ZM66 60H92V61H66ZM70 61H93V62H70ZM138 61H161V62H138ZM73 62H95V63H73ZM136 62H158V63H136ZM135 63H155V64H135ZM76 63H96V64H76ZM79 64H97V65H79ZM134 64H153V65H134ZM81 65H99V66H81ZM132 65H150V66H132ZM83 66H100V67H83ZM131 66H148V67H131ZM85 67H101V68H85ZM130 67H146V68H130ZM87 68H102V69H87ZM129 68H144V69H129ZM128 69H143V70H128ZM88 69H103V70H88ZM90 70H104V71H90ZM127 70H142V71H127ZM91 71H105V72H91ZM126 71H140V72H126ZM92 72H105V73H92ZM126 72H139V73H126ZM125 73H138V74H125ZM93 73H106V74H93ZM94 74H107V75H94ZM124 74H137V75H124ZM123 75H136V76H123ZM95 75H107V76H95ZM123 76H135V77H123ZM96 76H108V77H96ZM122 77H134V78H122ZM97 77H109V78H97ZM121 78H133V79H121ZM98 78H109V79H98ZM121 79H132V80H121ZM99 79H110V81H99ZM120 80H132V81H120ZM120 81H131V82H120ZM100 81H111V82H100ZM101 82H111V83H101ZM119 82H130V84H119ZM101 83H112V84H101ZM118 84H129V85H118ZM102 84H112V85H102ZM118 85H128V86H118ZM103 85H113V87H103ZM117 86H128V87H117ZM117 87H127V88H117ZM104 87H114V89H104ZM116 88H127V89H116ZM104 89H115V90H104ZM116 89H126V91H116ZM105 90H115V91H105ZM105 91H125V92H105ZM106 92H125V94H106ZM107 94H124V97H107ZM108 97H123V101H108ZM109 101H122V105H109ZM109 105H121V106H109ZM110 106H121V107H110ZM110 107H120V108H110ZM111 108H119V109H111ZM113 109H118V110H113ZM41 111H46V112H41ZM40 112H48V113H40ZM39 113H48V114H39ZM38 114H49V116H38ZM38 116H50V117H38ZM37 117H50V120H37ZM36 120H51V123H36ZM36 123H52V124H36ZM35 124H52V126H35ZM34 126H53V128H34ZM33 128H54V130H33ZM32 130H43V131H32ZM44 130H55V131H44ZM32 131H42V132H32ZM45 131H55V132H45ZM45 132H56V133H45ZM31 132H42V133H31ZM31 133H41V134H31ZM46 133H57V135H46ZM30 134H41V135H30ZM47 135H58V136H47ZM29 135H41V136H29ZM47 136H59V137H47ZM174 136H180V137H174ZM28 136H40V138H28ZM173 137H181V138H173ZM48 137H60V139H48ZM172 138H181V139H172ZM27 138H39V139H27ZM26 139H38V140H26ZM49 139H62V140H49ZM50 140H63V141H50ZM25 140H38V141H25ZM171 139H182V142H171ZM24 141H37V142H24ZM50 141H64V142H50ZM51 142H65V143H51ZM22 142H36V143H22ZM52 143H67V144H52ZM21 143H35V144H21ZM170 142H183V145H170ZM53 144H68V145H53ZM19 144H34V145H19ZM17 145H33V146H17ZM54 145H70V146H54ZM15 146H32V147H15ZM55 146H72V147H55ZM169 145H184V148H169ZM13 147H31V148H13ZM56 147H74V148H56ZM11 148H30V149H11ZM168 148H184V149H168ZM57 148H77V149H57ZM59 149H81V150H59ZM7 149H29V150H7ZM168 149H185V151H168ZM4 150H27V151H4ZM60 150H84V151H60ZM2 151H26V152H2ZM61 151H85V152H61ZM167 151H186V153H167ZM1 152H24V153H1ZM63 152H86V153H63ZM65 153H86V154H65ZM166 153H187V154H166ZM1 153H22V154H1ZM177 154H187V155H177ZM166 154H176V155H166ZM1 154H20V155H1ZM67 154H86V155H67ZM0 155H18V156H0ZM69 155H87V156H69ZM165 155H176V156H165ZM178 155H188V157H178ZM68 156H86V157H68ZM0 156H19V157H0ZM165 156H175V157H165ZM179 157H189V158H179ZM164 157H175V158H164ZM66 157H86V158H66ZM1 157H21V158H1ZM1 158H23V159H1ZM179 158H190V159H179ZM64 158H86V159H64ZM163 158H174V160H163ZM179 159H191V160H179ZM62 159H85V160H62ZM2 159H25V160H2ZM180 160H191V161H180ZM162 160H173V161H162ZM3 160H27V161H3ZM60 160H84V161H60ZM59 161H81V162H59ZM5 161H28V162H5ZM181 161H192V162H181ZM161 161H173V162H161ZM160 162H172V163H160ZM9 162H30V163H9ZM57 162H78V163H57ZM181 162H193V163H181ZM182 163H194V164H182ZM56 163H75V164H56ZM12 163H31V164H12ZM159 163H171V164H159ZM182 164H195V165H182ZM158 164H171V165H158ZM14 164H32V165H14ZM55 164H72V165H55ZM17 165H33V166H17ZM54 165H70V166H54ZM183 165H197V166H183ZM157 165H170V166H157ZM155 166H169V167H155ZM18 166H34V167H18ZM53 166H68V167H53ZM184 166H198V167H184ZM185 167H200V168H185ZM20 167H35V168H20ZM154 167H168V168H154ZM52 167H67V168H52ZM51 168H65V169H51ZM22 168H36V169H22ZM186 168H201V169H186ZM152 168H167V169H152ZM187 169H203V170H187ZM50 169H64V170H50ZM150 169H167V170H150ZM23 169H37V170H23ZM24 170H37V171H24ZM50 170H63V171H50ZM188 170H205V171H188ZM148 170H165V171H148ZM189 171H208V172H189ZM49 171H62V172H49ZM146 171H164V172H146ZM25 171H38V172H25ZM142 172H163V173H142ZM190 172H211V173H190ZM27 172H39V173H27ZM48 172H60V174H48ZM28 173H39V174H28ZM192 173H214V174H192ZM139 173H162V174H139ZM193 174H216V175H193ZM28 174H40V175H28ZM47 174H59V175H47ZM137 174H160V175H137ZM195 175H216V176H195ZM47 175H58V176H47ZM137 175H159V176H137ZM29 175H40V176H29ZM197 176H217V177H197ZM136 176H157V177H136ZM46 176H57V177H46ZM30 176H41V178H30ZM198 177H217V178H198ZM136 177H155V178H136ZM46 177H56V178H46ZM136 178H153V179H136ZM45 178H56V179H45ZM200 178H217V179H200ZM31 178H42V179H31ZM32 179H42V180H32ZM45 179H55V180H45ZM136 179H155V180H136ZM199 179H217V180H199ZM32 180H43V181H32ZM197 180H217V181H197ZM136 180H157V181H136ZM44 180H55V181H44ZM195 181H217V182H195ZM137 181H159V182H137ZM33 181H54V182H33ZM193 182H216V183H193ZM33 182H53V183H33ZM137 182H160V183H137ZM191 183H215V184H191ZM139 183H162V184H139ZM34 183H53V185H34ZM190 184H212V185H190ZM141 184H163V185H141ZM144 185H164V186H144ZM189 185H208V186H189ZM35 185H52V187H35ZM147 186H165V187H147ZM188 186H206V187H188ZM149 187H166V188H149ZM187 187H204V188H187ZM152 188H167V189H152ZM186 188H202V189H186ZM36 187H51V190H36ZM185 189H200V190H185ZM154 189H168V190H154ZM155 190H169V191H155ZM184 190H198V191H184ZM156 191H170V192H156ZM183 191H197V192H183ZM158 192H171V193H158ZM183 192H195V193H183ZM37 190H50V194H37ZM182 193H194V194H182ZM159 193H171V194H159ZM160 194H172V195H160ZM181 194H193V195H181ZM181 195H192V196H181ZM161 195H173V196H161ZM38 194H49V197H38ZM180 196H191V197H180ZM162 196H173V197H162ZM39 197H48V198H39ZM179 197H190V199H179ZM163 197H174V199H163ZM41 198H46V199H41ZM164 199H175V200H164ZM178 199H189V200H178ZM165 200H175V201H165ZM178 200H188V201H178ZM177 201H188V202H177ZM165 201H176V202H165ZM177 202H187V203H177ZM166 202H176V203H166ZM166 203H187V204H166ZM167 204H186V206H167ZM168 206H185V208H168ZM168 208H184V209H168ZM169 209H184V211H169ZM170 211H183V214H170ZM171 214H183V215H171ZM171 215H182V218H171ZM172 218H181V219H172ZM173 219H180V220H173ZM174 220H179V221H174Z"/>
</svg>
