<svg width="22" height="22" viewBox="-5 -5 211 257" preserveAspectRatio="xMidYMid meet" xmlns="http://www.w3.org/2000/svg">
  <path fill="#242628" d="M26 0H174V1H26ZM21 1H180V2H21ZM18 2H182V3H18ZM16 3H185V4H16ZM14 4H186V5H14ZM13 5H188V6H13ZM11 6H189V7H11ZM10 7H191V8H10ZM9 8H192V9H9ZM8 9H193V10H8ZM7 10H26V11H7ZM175 10H194V11H175ZM6 11H23V12H6ZM178 11H195V12H178ZM181 12H195V13H181ZM6 12H21V13H6ZM182 13H196V14H182ZM5 13H19V14H5ZM183 14H197V15H183ZM4 14H18V15H4ZM4 15H16V16H4ZM185 15H197V16H185ZM186 16H198V17H186ZM3 16H15V17H3ZM3 17H14V18H3ZM187 17H198V18H187ZM2 18H14V19H2ZM187 18H199V19H187ZM188 19H199V20H188ZM2 19H13V20H2ZM1 20H12V22H1ZM189 20H200V22H189ZM1 22H11V24H1ZM190 22H200V24H190ZM190 24H201V25H190ZM0 24H11V25H0ZM67 48H69V49H67ZM65 49H71V50H65ZM64 50H72V51H64ZM63 51H73V52H63ZM62 52H73V53H62ZM61 53H73V54H61ZM60 54H73V55H60ZM59 55H72V56H59ZM58 56H72V57H58ZM58 57H71V58H58ZM57 58H70V59H57ZM56 59H69V60H56ZM55 60H68V61H55ZM33 60H39V61H33ZM32 61H40V62H32ZM54 61H68V62H54ZM92 62H165V63H92ZM53 62H67V63H53ZM32 62H41V63H32ZM31 63H42V64H31ZM90 63H166V64H90ZM52 63H66V64H52ZM31 64H43V65H31ZM51 64H65V65H51ZM50 65H64V66H50ZM31 65H44V66H31ZM32 66H45V67H32ZM50 66H63V67H50ZM32 67H46V68H32ZM49 67H62V68H49ZM48 68H61V69H48ZM33 68H47V69H33ZM89 64H167V70H89ZM34 69H60V70H34ZM35 70H60V71H35ZM90 70H166V71H90ZM36 71H59V72H36ZM91 71H165V72H91ZM37 72H58V73H37ZM38 73H57V74H38ZM39 74H56V75H39ZM40 75H55V76H40ZM41 76H54V77H41ZM42 77H54V78H42ZM43 78H53V79H43ZM44 79H52V80H44ZM45 80H50V81H45ZM45 106H56V107H45ZM42 107H59V108H42ZM40 108H61V109H40ZM39 109H62V110H39ZM38 110H64V111H38ZM37 111H65V112H37ZM36 112H66V113H36ZM35 113H67V114H35ZM34 114H67V115H34ZM33 115H68V116H33ZM33 116H47V117H33ZM54 116H68V117H54ZM56 117H69V118H56ZM32 117H45V118H32ZM57 118H69V119H57ZM32 118H44V119H32ZM31 119H43V120H31ZM58 119H70V120H58ZM59 120H70V121H59ZM31 120H42V121H31ZM94 121H158V122H94ZM60 121H70V123H60ZM31 121H41V123H31ZM90 122H166V123H90ZM90 123H167V124H90ZM30 123H41V124H30ZM30 124H40V128H30ZM61 123H71V129H61ZM89 124H167V129H89ZM90 129H166V130H90ZM31 128H41V131H31ZM60 129H70V131H60ZM91 130H165V131H91ZM127 131H155V132H127ZM93 131H95V132H93ZM31 131H42V132H31ZM104 131H108V132H104ZM59 131H70V133H59ZM31 132H43V133H31ZM32 133H44V134H32ZM58 133H69V134H58ZM56 134H69V135H56ZM32 134H45V135H32ZM55 135H68V136H55ZM33 135H47V136H33ZM33 136H68V137H33ZM34 137H67V138H34ZM35 138H66V139H35ZM36 139H66V140H36ZM37 140H65V141H37ZM38 141H64V142H38ZM39 142H62V143H39ZM40 143H61V144H40ZM42 144H59V145H42ZM45 145H56V146H45ZM46 162H56V163H46ZM43 163H58V164H43ZM41 164H60V165H41ZM39 165H62V166H39ZM38 166H63V167H38ZM37 167H64V168H37ZM36 168H65V169H36ZM35 169H66V170H35ZM34 170H67V171H34ZM34 171H68V172H34ZM33 172H47V173H33ZM54 172H68V173H54ZM56 173H69V174H56ZM32 173H45V174H32ZM57 174H69V175H57ZM32 174H44V175H32ZM32 175H43V176H32ZM58 175H70V176H58ZM59 176H70V177H59ZM31 176H42V177H31ZM91 178H165V179H91ZM60 177H70V180H60ZM31 177H41V180H31ZM90 179H166V180H90ZM30 180H40V184H30ZM61 180H71V185H61ZM89 180H167V185H89ZM90 185H167V186H90ZM31 184H41V187H31ZM90 186H166V187H90ZM60 185H70V188H60ZM92 187H165V188H92ZM31 187H42V189H31ZM59 188H70V189H59ZM32 189H43V190H32ZM58 189H69V190H58ZM57 190H69V191H57ZM32 190H44V191H32ZM33 191H46V192H33ZM55 191H69V192H55ZM53 192H68V193H53ZM33 192H48V193H33ZM34 193H67V194H34ZM35 194H67V195H35ZM35 195H66V196H35ZM36 196H65V197H36ZM37 197H64V198H37ZM38 198H63V199H38ZM40 199H61V200H40ZM42 200H59V201H42ZM44 201H57V202H44ZM50 202H51V203H50ZM0 25H10V222H0ZM191 25H201V222H191ZM190 222H201V223H190ZM0 222H11V223H0ZM1 223H11V225H1ZM190 223H200V225H190ZM1 225H12V226H1ZM189 225H200V227H189ZM2 226H12V227H2ZM188 227H199V228H188ZM2 227H13V228H2ZM2 228H14V229H2ZM187 228H199V229H187ZM3 229H14V230H3ZM187 229H198V230H187ZM186 230H198V231H186ZM3 230H15V231H3ZM4 231H16V232H4ZM185 231H197V232H185ZM4 232H17V233H4ZM184 232H197V233H184ZM182 233H196V234H182ZM5 233H19V234H5ZM181 234H195V235H181ZM6 234H21V235H6ZM7 235H22V236H7ZM179 235H195V236H179ZM7 236H26V237H7ZM175 236H194V237H175ZM8 237H193V238H8ZM9 238H192V239H9ZM10 239H191V240H10ZM12 240H190V241H12ZM13 241H188V242H13ZM15 242H187V243H15ZM16 243H185V244H16ZM18 244H183V245H18ZM21 245H180V246H21ZM25 246H176V247H25Z"/>
</svg>
