<svg width="22" height="22" viewBox="-5 -5 234 239" preserveAspectRatio="xMidYMid meet" xmlns="http://www.w3.org/2000/svg">
  <path fill="#46505B" d="M19 0H207V1H19ZM15 1H211V2H15ZM12 2H213V3H12ZM11 3H215V4H11ZM9 4H216V5H9ZM8 5H217V6H8ZM7 6H218V7H7ZM6 7H219V8H6ZM5 8H220V9H5ZM4 9H221V10H4ZM3 10H18V11H3ZM206 10H221V11H206ZM209 11H222V12H209ZM3 11H16V12H3ZM2 12H15V13H2ZM211 12H222V13H211ZM2 13H14V14H2ZM212 13H223V15H212ZM2 14H13V15H2ZM213 15H223V16H213ZM1 15H12V16H1ZM213 16H224V17H213ZM1 16H11V19H1ZM1 19H10V43H1ZM1 43H11V44H1ZM0 44H11V48H0ZM214 17H224V50H214ZM1 48H11V50H1ZM1 50H12V51H1ZM213 50H224V51H213ZM213 51H223V52H213ZM1 51H13V52H1ZM2 52H14V53H2ZM212 52H223V53H212ZM2 53H15V54H2ZM210 53H223V54H210ZM3 54H222V56H3ZM4 56H221V57H4ZM4 57H220V58H4ZM5 58H220V59H5ZM6 59H219V60H6ZM8 60H217V61H8ZM9 61H216V62H9ZM11 62H214V63H11ZM203 63H213V64H203ZM194 63H199V64H194ZM12 63H22V71H12ZM12 71H21V75H12ZM204 64H213V89H204ZM81 98H144V99H81ZM78 99H147V100H78ZM76 100H149V101H76ZM75 101H150V102H75ZM74 102H151V103H74ZM73 103H152V104H73ZM72 104H153V105H72ZM71 105H154V106H71ZM71 106H155V107H71ZM70 107H155V108H70ZM69 108H82V109H69ZM143 108H155V109H143ZM69 109H80V110H69ZM144 109H156V110H144ZM145 110H156V111H145ZM69 110H79V112H69ZM146 111H156V112H146ZM203 89H213V114H203ZM147 112H157V118H147ZM68 112H78V119H68ZM146 118H157V119H146ZM146 119H156V120H146ZM68 119H79V120H68ZM69 120H80V121H69ZM145 120H156V121H145ZM69 121H81V122H69ZM144 121H156V122H144ZM204 114H213V123H204ZM123 122H155V123H123ZM70 122H118V123H70ZM70 123H155V124H70ZM71 124H154V126H71ZM72 126H153V127H72ZM73 127H152V128H73ZM74 128H151V129H74ZM75 129H149V130H75ZM77 130H148V131H77ZM80 131H146V132H80ZM12 75H22V154H12ZM12 154H21V161H12ZM203 123H213V206H203ZM12 161H22V206H12ZM12 206H23V207H12ZM202 206H212V209H202ZM13 207H23V209H13ZM201 209H212V210H201ZM13 209H24V210H13ZM200 210H211V212H200ZM14 210H25V212H14ZM14 212H26V213H14ZM199 212H211V213H199ZM15 213H27V214H15ZM198 213H210V214H198ZM15 214H28V215H15ZM197 214H210V215H197ZM196 215H209V216H196ZM16 215H29V216H16ZM195 216H208V217H195ZM17 216H30V217H17ZM193 217H208V218H193ZM17 217H32V218H17ZM189 218H207V219H189ZM18 218H35V219H18ZM19 219H206V220H19ZM20 220H205V221H20ZM21 221H204V222H21ZM22 222H203V223H22ZM23 223H202V224H23ZM25 224H200V225H25ZM27 225H198V226H27ZM29 226H196V227H29ZM31 227H194V228H31ZM35 228H190V229H35Z"/>
</svg>
