<?xml version="1.0" standalone="no"?>
<!DOCTYPE svg PUBLIC "-//W3C//DTD SVG 1.1//EN" "http://www.w3.org/Graphics/SVG/1.1/DTD/svg11.dtd">
<svg xmlns="http://www.w3.org/2000/svg" xmlns:xlink="http://www.w3.org/1999/xlink" t="1784183397677" class="icon" viewBox="0 0 1024 1024" version="1.1" p-id="10541" width="1024" height="1024">
  <path d="M56.448 166.208m128 0l655.04 0q128 0 128 128l0 521.92q0 128-128 128l-655.04 0q-128 0-128-128l0-521.92q0-128 128-128Z" fill="#5996FF" p-id="10542"/>
  <path d="M348.928 51.84m0 60.864l0 107.072q0 60.864-60.864 60.864l0 0q-60.864 0-60.864-60.864l0-107.072q0-60.864 60.864-60.864l0 0q60.864 0 60.864 60.864Z" fill="#A4C5FD" p-id="10543"/>
  <path d="M796.928 51.84m0 60.864l0 107.072q0 60.864-60.864 60.864l0 0q-60.864 0-60.864-60.864l0-107.072q0-60.864 60.864-60.864l0 0q60.864 0 60.864 60.864Z" fill="#A4C5FD" p-id="10544"/>
  <path d="M682.56 405.12l-220.352 239.168L341.12 510.336a29.184 29.184 0 0 0-43.968 0.32 37.376 37.376 0 0 0-0.256 48.64l123.264 136.576c23.04 25.344 60.288 25.6 83.52 0.448l222.72-241.728a37.312 37.312 0 0 0 0.64-49.216 29.248 29.248 0 0 0-44.48-0.256z" fill="#FFFFFF" p-id="10545"/>
  <path d="M748.8 430.336q0.256-19.392-12.16-33.408-12.928-14.592-31.68-14.72-18.752-0.128-31.872 14.272L462.272 625.344 350.656 501.76q-13.184-14.208-31.68-14.08-18.432 0.128-31.36 14.4-12.288 13.632-12.416 32.768-0.128 19.072 12.096 32.96l123.392 136.64q21.12 23.168 51.072 23.36 30.08 0.128 51.328-22.784l222.72-241.728q12.736-13.568 12.992-32.96z m-44.032-22.528q7.36 0 12.672 6.08 14.4 16.256-0.448 32l-222.72 241.728q-13.568 14.72-32.32 14.592-18.752-0.128-32.256-14.912L306.496 550.848q-14.08-15.936 0.192-31.616 5.312-5.888 12.48-5.952 7.232 0 12.48 5.632l130.432 144.384 230.016-249.6q5.376-5.952 12.672-5.888z" fill="#FFFFFF" p-id="10546"/>
</svg>
